<mxfile host="drawio-plugin" modified="2024-07-19T03:05:17.774Z" agent="5.0 (Macintosh; Intel Mac OS X 10_15_7) AppleWebKit/537.36 (KHTML, like Gecko) Chrome/104.0.5112.102 Safari/537.36" etag="QWvhpTOVba3yXoUsOM7l" version="20.5.3" type="embed"><diagram id="11vIDXTCHc-hCmNwMNcv" name="Page-1"><mxGraphModel dx="854" dy="508" grid="1" gridSize="10" guides="1" tooltips="1" connect="1" arrows="1" fold="1" page="1" pageScale="1" pageWidth="850" pageHeight="1100" math="0" shadow="0"><root><mxCell id="0"/><mxCell id="1" parent="0"/><mxCell id="65" style="edgeStyle=orthogonalEdgeStyle;rounded=0;orthogonalLoop=1;jettySize=auto;html=1;exitX=0;exitY=0.5;exitDx=0;exitDy=0;" parent="1" source="56" edge="1"><mxGeometry relative="1" as="geometry"><mxPoint x="350" y="575" as="targetPoint"/></mxGeometry></mxCell><mxCell id="66" value="响应请求" style="edgeLabel;html=1;align=center;verticalAlign=middle;resizable=0;points=[];" parent="65" vertex="1" connectable="0"><mxGeometry x="-0.0111" y="-1" relative="1" as="geometry"><mxPoint as="offset"/></mxGeometry></mxCell><mxCell id="56" value="" style="rounded=0;whiteSpace=wrap;html=1;gradientColor=none;" parent="1" vertex="1"><mxGeometry x="530" y="500" width="430" height="150" as="geometry"/></mxCell><mxCell id="4" value="" style="edgeStyle=orthogonalEdgeStyle;rounded=0;orthogonalLoop=1;jettySize=auto;html=1;" parent="1" source="2" target="3" edge="1"><mxGeometry relative="1" as="geometry"/></mxCell><mxCell id="2" value="程序启动" style="rounded=0;whiteSpace=wrap;html=1;" parent="1" vertex="1"><mxGeometry x="120" y="140" width="80" height="40" as="geometry"/></mxCell><mxCell id="6" value="" style="edgeStyle=orthogonalEdgeStyle;rounded=0;orthogonalLoop=1;jettySize=auto;html=1;" parent="1" source="3" target="5" edge="1"><mxGeometry relative="1" as="geometry"/></mxCell><mxCell id="14" style="edgeStyle=orthogonalEdgeStyle;rounded=0;orthogonalLoop=1;jettySize=auto;html=1;entryX=0.5;entryY=0;entryDx=0;entryDy=0;" parent="1" source="3" target="13" edge="1"><mxGeometry relative="1" as="geometry"/></mxCell><mxCell id="3" value="初始化r对象&lt;br&gt;&lt;div style=&quot;background-color: rgb(39, 40, 34); color: rgb(248, 248, 242); font-family: &amp;quot;JetBrains Mono&amp;quot;, monospace; font-size: 9.8pt;&quot;&gt;gee.&lt;span style=&quot;color:#66d9ef;&quot;&gt;New&lt;/span&gt;()&lt;/div&gt;" style="rounded=0;whiteSpace=wrap;html=1;" parent="1" vertex="1"><mxGeometry x="280" y="140" width="80" height="40" as="geometry"/></mxCell><mxCell id="5" value="newRouter" style="rounded=0;whiteSpace=wrap;html=1;" parent="1" vertex="1"><mxGeometry x="440" y="140" width="80" height="40" as="geometry"/></mxCell><mxCell id="16" value="" style="edgeStyle=orthogonalEdgeStyle;rounded=0;orthogonalLoop=1;jettySize=auto;html=1;" parent="1" source="13" target="15" edge="1"><mxGeometry relative="1" as="geometry"/></mxCell><mxCell id="36" value="" style="edgeStyle=orthogonalEdgeStyle;rounded=0;orthogonalLoop=1;jettySize=auto;html=1;" parent="1" source="13" target="35" edge="1"><mxGeometry relative="1" as="geometry"/></mxCell><mxCell id="13" value="r.GET" style="rounded=0;whiteSpace=wrap;html=1;gradientColor=none;" parent="1" vertex="1"><mxGeometry x="280" y="230" width="80" height="40" as="geometry"/></mxCell><mxCell id="18" value="" style="edgeStyle=orthogonalEdgeStyle;rounded=0;orthogonalLoop=1;jettySize=auto;html=1;" parent="1" source="15" target="17" edge="1"><mxGeometry relative="1" as="geometry"/></mxCell><mxCell id="15" value="&lt;div style=&quot;background-color: rgb(39, 40, 34); color: rgb(248, 248, 242); font-family: &amp;quot;JetBrains Mono&amp;quot;, monospace; font-size: 9.8pt;&quot;&gt;engine.&lt;span style=&quot;color:#66d9ef;&quot;&gt;addRoute&lt;/span&gt;&lt;/div&gt;" style="rounded=0;whiteSpace=wrap;html=1;gradientColor=none;" parent="1" vertex="1"><mxGeometry x="440" y="230" width="130" height="40" as="geometry"/></mxCell><mxCell id="21" style="edgeStyle=orthogonalEdgeStyle;rounded=0;orthogonalLoop=1;jettySize=auto;html=1;exitX=1;exitY=0.5;exitDx=0;exitDy=0;entryX=0;entryY=0.5;entryDx=0;entryDy=0;" parent="1" source="17" edge="1"><mxGeometry relative="1" as="geometry"><mxPoint x="840" y="250" as="targetPoint"/></mxGeometry></mxCell><mxCell id="17" value="&lt;div style=&quot;background-color: rgb(39, 40, 34); color: rgb(248, 248, 242); font-family: &amp;quot;JetBrains Mono&amp;quot;, monospace; font-size: 9.8pt;&quot;&gt;&lt;div style=&quot;font-size: 9.8pt;&quot;&gt;router.&lt;span style=&quot;color:#66d9ef;&quot;&gt;addRoute&lt;/span&gt;&lt;/div&gt;&lt;/div&gt;" style="rounded=0;whiteSpace=wrap;html=1;gradientColor=none;" parent="1" vertex="1"><mxGeometry x="650" y="230" width="130" height="40" as="geometry"/></mxCell><mxCell id="20" value="&lt;div style=&quot;background-color: rgb(39, 40, 34); color: rgb(248, 248, 242); font-family: &amp;quot;JetBrains Mono&amp;quot;, monospace; font-size: 9.8pt;&quot;&gt;handlers &lt;span style=&quot;color:#f92672;&quot;&gt;map&lt;/span&gt;[&lt;span style=&quot;color:#769aa5;&quot;&gt;string&lt;/span&gt;]&lt;span style=&quot;color:#769aa5;&quot;&gt;HandlerFunc&lt;/span&gt;&lt;/div&gt;" style="text;html=1;strokeColor=none;fillColor=none;align=center;verticalAlign=middle;whiteSpace=wrap;rounded=0;" parent="1" vertex="1"><mxGeometry x="780" y="190" width="290" height="30" as="geometry"/></mxCell><mxCell id="22" value="" style="shape=table;startSize=0;container=1;collapsible=0;childLayout=tableLayout;gradientColor=none;" parent="1" vertex="1"><mxGeometry x="840" y="220" width="190" height="120" as="geometry"/></mxCell><mxCell id="23" value="" style="shape=tableRow;horizontal=0;startSize=0;swimlaneHead=0;swimlaneBody=0;top=0;left=0;bottom=0;right=0;collapsible=0;dropTarget=0;fillColor=none;points=[[0,0.5],[1,0.5]];portConstraint=eastwest;" parent="22" vertex="1"><mxGeometry width="190" height="40" as="geometry"/></mxCell><mxCell id="24" value="key" style="shape=partialRectangle;html=1;whiteSpace=wrap;connectable=0;overflow=hidden;fillColor=none;top=0;left=0;bottom=0;right=0;pointerEvents=1;" parent="23" vertex="1"><mxGeometry width="100" height="40" as="geometry"><mxRectangle width="100" height="40" as="alternateBounds"/></mxGeometry></mxCell><mxCell id="25" value="value" style="shape=partialRectangle;html=1;whiteSpace=wrap;connectable=0;overflow=hidden;fillColor=none;top=0;left=0;bottom=0;right=0;pointerEvents=1;" parent="23" vertex="1"><mxGeometry x="100" width="90" height="40" as="geometry"><mxRectangle width="90" height="40" as="alternateBounds"/></mxGeometry></mxCell><mxCell id="26" value="" style="shape=tableRow;horizontal=0;startSize=0;swimlaneHead=0;swimlaneBody=0;top=0;left=0;bottom=0;right=0;collapsible=0;dropTarget=0;fillColor=none;points=[[0,0.5],[1,0.5]];portConstraint=eastwest;" parent="22" vertex="1"><mxGeometry y="40" width="190" height="40" as="geometry"/></mxCell><mxCell id="27" value="methon-&lt;span style=&quot;background-color: rgb(39, 40, 34); color: rgb(248, 248, 242); font-family: &amp;quot;JetBrains Mono&amp;quot;, monospace; font-size: 9.8pt;&quot;&gt;pattern&lt;/span&gt;" style="shape=partialRectangle;html=1;whiteSpace=wrap;connectable=0;overflow=hidden;fillColor=none;top=0;left=0;bottom=0;right=0;pointerEvents=1;" parent="26" vertex="1"><mxGeometry width="100" height="40" as="geometry"><mxRectangle width="100" height="40" as="alternateBounds"/></mxGeometry></mxCell><mxCell id="28" value="&lt;div style=&quot;background-color: rgb(39, 40, 34); color: rgb(248, 248, 242); font-family: &amp;quot;JetBrains Mono&amp;quot;, monospace; font-size: 9.8pt;&quot;&gt;handler&lt;/div&gt;" style="shape=partialRectangle;html=1;whiteSpace=wrap;connectable=0;overflow=hidden;fillColor=none;top=0;left=0;bottom=0;right=0;pointerEvents=1;" parent="26" vertex="1"><mxGeometry x="100" width="90" height="40" as="geometry"><mxRectangle width="90" height="40" as="alternateBounds"/></mxGeometry></mxCell><mxCell id="29" value="" style="shape=tableRow;horizontal=0;startSize=0;swimlaneHead=0;swimlaneBody=0;top=0;left=0;bottom=0;right=0;collapsible=0;dropTarget=0;fillColor=none;points=[[0,0.5],[1,0.5]];portConstraint=eastwest;" parent="22" vertex="1"><mxGeometry y="80" width="190" height="40" as="geometry"/></mxCell><mxCell id="30" value="" style="shape=partialRectangle;html=1;whiteSpace=wrap;connectable=0;overflow=hidden;fillColor=none;top=0;left=0;bottom=0;right=0;pointerEvents=1;" parent="29" vertex="1"><mxGeometry width="100" height="40" as="geometry"><mxRectangle width="100" height="40" as="alternateBounds"/></mxGeometry></mxCell><mxCell id="31" value="" style="shape=partialRectangle;html=1;whiteSpace=wrap;connectable=0;overflow=hidden;fillColor=none;top=0;left=0;bottom=0;right=0;pointerEvents=1;" parent="29" vertex="1"><mxGeometry x="100" width="90" height="40" as="geometry"><mxRectangle width="90" height="40" as="alternateBounds"/></mxGeometry></mxCell><mxCell id="40" value="" style="edgeStyle=orthogonalEdgeStyle;rounded=0;orthogonalLoop=1;jettySize=auto;html=1;" parent="1" source="35" target="39" edge="1"><mxGeometry relative="1" as="geometry"/></mxCell><mxCell id="35" value="&lt;div style=&quot;background-color: rgb(39, 40, 34); font-family: &amp;quot;JetBrains Mono&amp;quot;, monospace; font-size: 9.8pt;&quot;&gt;&lt;font color=&quot;#a6e22e&quot;&gt;r.run()&lt;/font&gt;&lt;/div&gt;" style="rounded=0;whiteSpace=wrap;html=1;gradientColor=none;" parent="1" vertex="1"><mxGeometry x="280" y="320" width="80" height="40" as="geometry"/></mxCell><mxCell id="45" style="edgeStyle=orthogonalEdgeStyle;rounded=0;orthogonalLoop=1;jettySize=auto;html=1;exitX=1;exitY=0.5;exitDx=0;exitDy=0;entryX=0;entryY=0.5;entryDx=0;entryDy=0;" parent="1" source="39" target="44" edge="1"><mxGeometry relative="1" as="geometry"/></mxCell><mxCell id="39" value="&lt;div style=&quot;background-color: rgb(39, 40, 34); font-family: &amp;quot;JetBrains Mono&amp;quot;, monospace; font-size: 9.8pt;&quot;&gt;&lt;font color=&quot;#a6e22e&quot;&gt;监听9090端口&lt;/font&gt;&lt;/div&gt;" style="rounded=0;whiteSpace=wrap;html=1;gradientColor=none;" parent="1" vertex="1"><mxGeometry x="270" y="410" width="100" height="40" as="geometry"/></mxCell><mxCell id="42" value="GET ：/hello" style="edgeStyle=orthogonalEdgeStyle;rounded=0;orthogonalLoop=1;jettySize=auto;html=1;entryX=0.5;entryY=1;entryDx=0;entryDy=0;" parent="1" source="41" target="39" edge="1"><mxGeometry relative="1" as="geometry"/></mxCell><mxCell id="41" value="Actor" style="shape=umlActor;verticalLabelPosition=bottom;verticalAlign=top;html=1;outlineConnect=0;gradientColor=none;" parent="1" vertex="1"><mxGeometry x="305" y="550" width="30" height="60" as="geometry"/></mxCell><mxCell id="47" value="" style="edgeStyle=orthogonalEdgeStyle;rounded=0;orthogonalLoop=1;jettySize=auto;html=1;" parent="1" source="44" target="46" edge="1"><mxGeometry relative="1" as="geometry"/></mxCell><mxCell id="44" value="&lt;div style=&quot;background-color: rgb(39, 40, 34); font-family: &amp;quot;JetBrains Mono&amp;quot;, monospace; font-size: 9.8pt;&quot;&gt;&lt;div style=&quot;color: rgb(248, 248, 242); font-size: 9.8pt;&quot;&gt;&lt;span style=&quot;color:#a6e22e;&quot;&gt;ServeHTTP&lt;/span&gt;&lt;/div&gt;&lt;/div&gt;" style="rounded=0;whiteSpace=wrap;html=1;gradientColor=none;" parent="1" vertex="1"><mxGeometry x="440" y="410" width="100" height="40" as="geometry"/></mxCell><mxCell id="48" style="edgeStyle=orthogonalEdgeStyle;rounded=0;orthogonalLoop=1;jettySize=auto;html=1;exitX=1;exitY=0.5;exitDx=0;exitDy=0;entryX=0;entryY=0.5;entryDx=0;entryDy=0;" parent="1" source="46" target="26" edge="1"><mxGeometry relative="1" as="geometry"><Array as="points"><mxPoint x="800" y="430"/><mxPoint x="800" y="280"/></Array></mxGeometry></mxCell><mxCell id="50" value="1.查询路由是否注册" style="edgeLabel;html=1;align=center;verticalAlign=middle;resizable=0;points=[];" parent="48" vertex="1" connectable="0"><mxGeometry x="0.0467" y="-3" relative="1" as="geometry"><mxPoint as="offset"/></mxGeometry></mxCell><mxCell id="52" style="edgeStyle=orthogonalEdgeStyle;rounded=0;orthogonalLoop=1;jettySize=auto;html=1;exitX=0.5;exitY=1;exitDx=0;exitDy=0;entryX=0.417;entryY=-0.008;entryDx=0;entryDy=0;entryPerimeter=0;" parent="1" source="46" target="49" edge="1"><mxGeometry relative="1" as="geometry"><Array as="points"><mxPoint x="650" y="450"/></Array></mxGeometry></mxCell><mxCell id="53" value="2.已注册" style="edgeLabel;html=1;align=center;verticalAlign=middle;resizable=0;points=[];" parent="52" vertex="1" connectable="0"><mxGeometry x="-0.161" y="-2" relative="1" as="geometry"><mxPoint as="offset"/></mxGeometry></mxCell><mxCell id="55" value="3.未注册" style="edgeStyle=orthogonalEdgeStyle;rounded=0;orthogonalLoop=1;jettySize=auto;html=1;exitX=0.75;exitY=1;exitDx=0;exitDy=0;entryX=0.25;entryY=0;entryDx=0;entryDy=0;" parent="1" source="46" target="54" edge="1"><mxGeometry relative="1" as="geometry"/></mxCell><mxCell id="46" value="&lt;div style=&quot;background-color: rgb(39, 40, 34); font-family: &amp;quot;JetBrains Mono&amp;quot;, monospace; font-size: 9.8pt;&quot;&gt;&lt;div style=&quot;color: rgb(248, 248, 242); font-size: 9.8pt;&quot;&gt;&lt;div style=&quot;font-size: 9.8pt;&quot;&gt;&lt;span style=&quot;color:#a6e22e;&quot;&gt;handle&lt;/span&gt;&lt;/div&gt;&lt;/div&gt;&lt;/div&gt;" style="rounded=0;whiteSpace=wrap;html=1;gradientColor=none;" parent="1" vertex="1"><mxGeometry x="600" y="410" width="110" height="40" as="geometry"/></mxCell><mxCell id="49" value="&lt;h1&gt;&lt;div style=&quot;background-color: rgb(39, 40, 34); color: rgb(248, 248, 242); font-family: &amp;quot;JetBrains Mono&amp;quot;, monospace; font-size: 9.8pt;&quot;&gt;&lt;span style=&quot;color:#f92672;&quot;&gt;func&lt;/span&gt;(c &lt;span style=&quot;color:#f92672;&quot;&gt;*&lt;/span&gt;gee.&lt;span style=&quot;color:#769aa5;&quot;&gt;Context&lt;/span&gt;) {&lt;br&gt;    &lt;span style=&quot;color:#75715e;&quot;&gt;// expect /hello?name=geektutu&lt;br&gt;&lt;/span&gt;&lt;span style=&quot;color:#75715e;&quot;&gt;    &lt;/span&gt;c.&lt;span style=&quot;color:#66d9ef;&quot;&gt;String&lt;/span&gt;(http.StatusOK, &lt;span style=&quot;color:#e6db74;&quot;&gt;&quot;hello %s, you're at %s&lt;/span&gt;&lt;span style=&quot;color:#ae81ff;&quot;&gt;\n&lt;/span&gt;&lt;span style=&quot;color:#e6db74;&quot;&gt;&quot;&lt;/span&gt;, c.&lt;span style=&quot;color:#66d9ef;&quot;&gt;Query&lt;/span&gt;(&lt;span style=&quot;color:#e6db74;&quot;&gt;&quot;name&quot;&lt;/span&gt;), c.&lt;span style=&quot;font-style:italic;&quot;&gt;Path&lt;/span&gt;)&lt;br&gt;}&lt;/div&gt;&lt;/h1&gt;" style="text;html=1;strokeColor=none;fillColor=none;spacing=5;spacingTop=-20;whiteSpace=wrap;overflow=hidden;rounded=0;" parent="1" vertex="1"><mxGeometry x="550" y="520" width="240" height="120" as="geometry"/></mxCell><mxCell id="54" value="404，NOT FOUNT" style="rounded=0;whiteSpace=wrap;html=1;gradientColor=none;" parent="1" vertex="1"><mxGeometry x="820" y="520" width="110" height="40" as="geometry"/></mxCell></root></mxGraphModel></diagram></mxfile>